<svg version="1.1" id="Layer_1" xmlns="http://www.w3.org/2000/svg" xmlns:xlink="http://www.w3.org/1999/xlink" x="0px" y="0px"
	 width="100%" viewBox="0 0 592 592" enable-background="new 0 0 592 592" xml:space="preserve">
<path fill="#000000" opacity="1.000000" stroke="none" 
	d="
M508.990387,74.997009 
	C512.116089,71.602219 515.003052,68.468719 517.877441,65.348892 
	C519.702087,66.985725 518.660461,67.978592 518.182922,68.924507 
	C515.329895,74.575371 512.326965,80.152817 509.572601,85.850731 
	C506.469238,92.270706 502.808746,98.423431 501.214813,105.543983 
	C499.597290,112.769775 494.950226,118.618805 490.854645,124.756668 
	C492.083008,122.043549 493.311371,119.330437 494.539734,116.617317 
	C494.268860,116.489616 493.997986,116.361916 493.727112,116.234215 
	C488.735657,125.870850 483.756073,135.513641 478.747375,145.141296 
	C476.518433,149.425797 474.206238,153.666992 471.975677,157.950668 
	C468.596008,164.441177 465.542542,171.126266 458.443573,174.688812 
	C456.899567,175.463669 455.554688,177.064194 454.640381,178.596161 
	C448.138489,189.490509 439.503723,198.863663 432.713531,209.544449 
	C429.032593,215.334503 426.369659,221.435318 424.783630,228.233322 
	C422.787170,236.790405 416.688690,243.067612 409.277954,247.010376 
	C399.348969,252.292892 393.049072,260.886078 386.930450,269.447266 
	C375.926453,284.843994 365.926910,300.942810 354.588531,316.142059 
	C350.353943,321.818604 347.490295,328.566864 344.359497,335.000610 
	C342.257599,339.320007 339.357239,342.718414 335.688202,345.758942 
	C330.561829,350.007172 324.263336,353.794739 321.140991,359.297150 
	C315.652954,368.968536 306.171997,373.498596 298.505463,380.302765 
	C288.034729,389.595764 282.057739,401.494293 277.487305,414.354523 
	C276.598114,416.856415 275.500092,419.292419 274.366364,421.696533 
	C273.339508,423.874084 271.706024,426.049774 269.432343,426.386505 
	C254.872910,428.542847 247.525711,439.987885 238.993958,449.791962 
	C226.352509,464.318726 217.133163,481.470917 204.028412,495.705688 
	C209.627365,491.104004 214.629929,485.943756 219.820770,480.774475 
	C219.756424,485.171448 216.770218,488.084869 214.274353,490.969025 
	C200.530487,506.851013 184.490509,520.437988 169.604462,535.183044 
	C169.298523,535.486023 168.735168,535.529175 168.290848,535.693909 
	C167.206787,534.124207 168.440018,533.072388 168.995300,531.996948 
	C187.720154,495.729950 206.486740,459.484497 225.220428,423.222076 
	C227.064896,419.651733 229.207367,416.338531 231.857285,413.286560 
	C237.846741,406.388245 241.848846,398.370422 244.461014,389.650970 
	C246.556061,382.657593 247.944611,381.979889 254.535080,385.394440 
	C257.883942,381.819611 259.878021,377.199005 262.356384,372.981201 
	C267.333771,364.510406 271.919525,355.810059 276.706970,347.226837 
	C279.613251,342.016266 283.269562,337.664520 289.238983,335.662079 
	C293.375763,334.274292 295.249023,330.591309 296.961823,326.927673 
	C299.901642,320.639374 301.602417,314.105316 309.074432,310.354645 
	C314.609955,307.576019 317.803040,300.900848 321.386841,295.493683 
	C325.188324,289.758118 329.604858,284.658264 334.554108,279.899567 
	C340.622192,274.065033 346.124054,267.813385 345.818207,258.507874 
	C345.741455,256.172180 347.960144,254.842255 348.977295,252.969284 
	C354.041779,243.643631 359.910645,235.580673 369.363037,229.487030 
	C378.307159,223.721024 384.072845,213.725784 392.423004,206.754486 
	C395.508118,204.178818 398.794556,202.167267 402.547699,200.544250 
	C408.347290,198.036270 412.180847,193.062195 415.379944,187.714447 
	C415.764404,187.071762 415.998047,185.785034 415.634888,185.335968 
	C412.553467,181.525528 415.670624,179.318802 417.725922,176.916061 
	C447.299652,142.342728 478.142181,108.904778 508.990387,74.997009 
z"/>
<path fill="#000000" opacity="1.000000" stroke="none" 
	d="
M221.971191,344.039429 
	C215.755859,349.192139 210.982635,355.613678 206.209854,362.026764 
	C203.651230,365.464691 202.924652,369.567322 201.994980,373.647797 
	C201.036636,377.854156 199.468735,381.743347 193.736710,380.816742 
	C192.050110,380.544098 190.384201,381.507690 189.285645,382.766815 
	C174.667191,399.522186 158.223953,414.659332 145.219696,432.943787 
	C146.440079,431.987274 147.660446,431.030731 148.880814,430.074219 
	C141.414154,450.316467 123.195679,461.199615 109.476883,477.337280 
	C108.860672,473.898956 110.205200,472.275452 111.055244,470.619781 
	C120.261330,452.688202 130.144180,435.074432 138.632614,416.811676 
	C148.903656,394.713593 160.466125,373.382874 173.064514,352.570282 
	C174.012756,351.003784 174.936798,349.416565 175.984909,347.917938 
	C178.125351,344.857422 180.463699,343.389038 183.555466,346.956268 
	C186.217361,350.027496 188.005615,347.788727 189.363815,345.589996 
	C192.426910,340.631256 196.783936,335.863129 197.927261,330.449890 
	C200.562729,317.971741 209.431137,309.539032 215.936905,299.666504 
	C224.206512,287.117340 230.806381,273.671173 238.465042,260.809448 
	C240.324081,257.687469 242.505997,255.683472 245.726028,253.607422 
	C251.903519,249.624573 257.847290,244.214706 259.524109,236.481552 
	C261.307861,228.255264 265.917755,223.217621 273.643280,220.604340 
	C279.432129,218.646179 282.825592,214.620285 284.936432,208.874222 
	C288.212280,199.956818 292.271362,191.345367 297.702637,183.483826 
	C301.467621,178.034195 305.484467,172.936600 313.260803,173.665802 
	C315.958801,173.918793 317.331604,171.752869 318.689423,169.824646 
	C324.641022,161.372665 330.703491,153.013885 338.186981,145.801407 
	C341.229614,142.868973 344.486023,140.295334 348.760040,139.504959 
	C351.816986,138.939636 353.683533,136.882507 355.438507,134.619949 
	C371.684204,113.675468 389.051575,93.677353 406.695251,73.913994 
	C408.638733,71.737030 410.368195,69.246979 413.222687,68.042694 
	C414.642822,69.878555 413.381714,71.181572 412.649597,72.288010 
	C406.106354,82.176826 404.427673,93.948235 399.986084,104.640793 
	C397.241211,111.248756 394.346680,117.799583 390.578003,123.910713 
	C389.856384,125.080887 389.638062,126.866684 387.243774,126.779358 
	C387.944122,121.941032 391.635742,118.272766 392.236572,112.881004 
	C384.170380,126.948639 376.552979,140.551010 368.624390,153.969498 
	C361.085541,166.728378 353.421417,179.421951 344.169220,191.069153 
	C341.911530,193.911255 339.316498,196.088470 335.809082,197.064178 
	C330.769531,198.466110 326.573853,201.661087 323.855011,205.637756 
	C319.802277,211.565399 314.331665,216.861771 313.154358,224.517426 
	C312.997467,225.537613 311.977142,226.505646 311.181549,227.328537 
	C309.910461,228.643265 308.580505,229.933029 307.122345,231.029816 
	C297.936340,237.939102 290.505310,245.778198 287.432831,257.584198 
	C284.858734,267.475067 278.280060,275.164825 269.537048,280.850433 
	C267.144501,282.406311 263.665436,283.804199 265.693054,288.143433 
	C266.215240,289.260925 264.502441,290.368347 263.572906,291.298370 
	C260.864014,294.008698 258.109100,296.673340 255.418152,299.401184 
	C253.267151,301.581726 251.567703,304.111969 251.293442,307.211670 
	C250.721695,313.673584 246.665039,317.786316 242.593735,322.382385 
	C236.428574,329.342224 228.901031,334.943268 222.969666,342.866699 
	C222.400345,343.553131 222.179138,343.790100 221.971191,344.039429 
z"/>
<path fill="#000000" opacity="1.000000" stroke="none" 
	d="
M176.918121,217.822021 
	C193.213303,211.971558 203.103058,200.714050 207.888107,184.624786 
	C209.820633,178.126862 214.035843,173.214554 219.831924,169.783524 
	C223.660080,167.517426 226.406494,164.356293 229.054962,160.844162 
	C249.812164,133.318024 271.365295,106.413284 292.953949,79.538582 
	C293.905365,78.354218 294.539642,76.551392 297.553314,76.709282 
	C294.217255,82.853867 291.249268,88.699821 287.941650,94.346848 
	C273.809052,118.475159 258.550110,142.012482 248.478928,168.282227 
	C246.276138,174.028015 243.514160,179.104538 238.825851,183.104889 
	C237.019806,184.645920 235.734253,186.607529 235.072418,188.904129 
	C233.071152,195.848755 228.599594,201.643784 226.067108,208.342056 
	C225.457718,209.953842 224.187531,211.140396 222.763550,212.000931 
	C218.749146,214.426834 216.244751,217.514603 217.134430,222.579132 
	C217.491516,224.611786 215.998444,225.964706 214.647278,227.224945 
	C210.872101,230.746078 207.104172,234.276031 203.274353,237.737183 
	C200.866241,239.913498 199.598358,242.377121 200.507492,245.699905 
	C201.398422,248.956207 200.302200,251.162094 196.996750,252.309540 
	C193.625031,253.479996 191.031860,255.877045 188.336716,258.120453 
	C186.640503,259.532349 185.573776,261.250916 186.115204,263.332245 
	C188.061874,270.815521 183.476639,275.485504 179.206039,280.435303 
	C171.377792,289.508575 161.277328,296.749847 156.770447,308.534424 
	C155.877731,310.868713 153.446777,312.294678 151.206085,313.394043 
	C144.618744,316.626007 140.435135,321.931793 137.029678,328.271942 
	C134.623840,332.751007 132.714218,337.930756 125.691391,337.805359 
	C122.815842,337.753967 120.293846,341.027496 118.607140,343.723602 
	C115.415421,348.825470 111.483315,353.350220 107.769966,358.231903 
	C108.563080,359.610687 109.474739,357.416229 110.113892,358.561859 
	C108.951324,365.064362 104.511299,370.009918 81.781265,389.922333 
	C80.243805,388.942230 81.408096,387.794952 81.800148,386.972290 
	C95.912788,357.357361 110.002403,327.730774 124.307747,298.208832 
	C127.474373,291.673828 129.862717,291.413696 135.600311,296.163788 
	C140.632843,289.168213 146.066498,282.503540 150.210632,274.919647 
	C150.592621,274.220551 150.851242,273.283142 150.743927,272.515594 
	C150.086441,267.812347 151.855118,265.763580 156.413834,263.436951 
	C161.628571,260.775482 164.474411,254.655396 164.611877,248.338364 
	C164.662033,246.034027 164.874023,244.077515 166.217163,242.298767 
	C169.930161,237.381592 171.714172,231.750381 172.762329,225.757248 
	C173.266403,222.875122 173.598648,219.725754 176.918121,217.822021 
z"/>
<path fill="#000000" opacity="1.000000" stroke="none" 
	d="
M433.777161,302.768494 
	C449.221680,287.709961 464.413483,272.902130 480.345306,257.373016 
	C480.912659,260.763397 479.602173,262.185974 478.764587,263.648102 
	C468.254822,281.993927 457.687408,300.306763 447.140656,318.631409 
	C446.052032,320.522797 444.928040,322.445251 442.967896,323.507843 
	C433.997925,328.370636 431.227936,336.396088 429.724243,345.997589 
	C428.697540,352.553375 423.196808,357.423676 417.541534,360.954224 
	C415.051483,362.508759 412.804108,363.843994 411.507965,366.505829 
	C406.260895,377.281311 398.690735,386.686981 390.204285,394.630859 
	C384.096893,400.347748 379.394745,406.484772 375.119232,413.360901 
	C372.702362,417.247925 368.680969,419.349396 364.391571,420.085876 
	C360.870972,420.690399 358.863983,422.572571 356.833679,425.116302 
	C350.056213,433.607574 345.856140,443.808655 338.906250,452.146118 
	C333.748352,458.333771 328.982819,464.684906 320.713287,467.800690 
	C312.519012,470.888092 307.926422,478.802734 302.805969,485.496857 
	C294.394745,496.493134 285.868530,507.315674 275.234924,516.298767 
	C273.383850,517.862610 271.694550,519.624939 269.215942,520.244019 
	C268.185852,518.267334 269.548279,517.130005 270.202637,515.915833 
	C280.239990,497.291046 290.576874,478.772980 302.792175,461.532227 
	C312.440063,447.915131 319.833282,432.667908 331.809387,420.689758 
	C333.412262,419.086609 334.439880,416.858734 335.539001,414.815308 
	C336.662262,412.726959 337.771576,410.307434 339.914124,409.518311 
	C346.360138,407.144165 348.899750,401.421112 352.066528,396.229004 
	C355.762634,390.168945 359.894135,385.173492 367.089722,382.426483 
	C372.411591,380.394836 375.314423,374.813141 375.666931,368.784882 
	C376.046875,362.288574 384.595764,350.860870 390.863708,348.670349 
	C398.193817,346.108673 402.789032,339.921295 408.343658,335.024902 
	C408.907837,334.527618 409.389648,333.498627 409.312531,332.780487 
	C408.590027,326.051849 413.603638,322.747833 417.531952,318.818176 
	C422.829620,313.518646 428.190643,308.282471 433.777161,302.768494 
z"/>
<path fill="#000000" opacity="1.000000" stroke="none" 
	d="
M404.741455,253.754379 
	C407.812775,250.937408 410.171600,247.858719 413.514801,245.871277 
	C414.651978,245.195251 415.814575,244.145935 417.077850,245.377838 
	C418.316559,246.585709 417.380310,247.714706 416.713989,248.924484 
	C408.768036,263.352264 398.008118,275.361359 385.453339,285.910919 
	C382.819366,288.124207 380.724731,291.001007 378.497314,293.668640 
	C377.083710,295.361694 375.751312,297.024567 372.282898,296.985046 
	C375.129364,291.241943 377.419678,285.663055 381.835114,281.480560 
	C386.041138,277.496429 389.440857,273.157471 391.066284,267.548492 
	C392.363190,263.073151 395.794800,260.477783 399.389343,257.983887 
	C401.158234,256.756622 402.792572,255.335342 404.741455,253.754379 
z"/>
<path fill="#000000" opacity="1.000000" stroke="none" 
	d="
M221.866104,344.366791 
	C222.179138,343.790100 222.400345,343.553131 222.815155,343.165833 
	C229.019562,343.988190 231.745697,338.438721 236.601929,335.760895 
	C236.458099,340.103790 234.503922,342.910370 231.983032,345.308350 
	C227.161316,349.895050 223.084229,354.992096 219.079041,360.345825 
	C214.020798,367.107178 208.692810,373.578583 204.953247,381.211578 
	C204.228882,382.690125 203.016586,383.858429 200.874725,384.385315 
	C205.773514,373.325928 207.154236,361.016846 216.715775,352.670715 
	C219.114899,350.576538 220.307098,347.501495 221.866104,344.366791 
z"/>
<path fill="#000000" opacity="1.000000" stroke="none" 
	d="
M338.016418,353.007385 
	C332.690033,357.646973 328.334167,362.939117 322.065857,366.179810 
	C322.342682,359.923248 334.999268,346.977539 340.246735,347.371094 
	C340.740204,349.589203 339.028229,350.999359 338.016418,353.007385 
z"/>
<path fill="#000000" opacity="1.000000" stroke="none" 
	d="
M289.369507,394.427673 
	C291.830627,390.832520 293.723816,387.180267 298.576996,384.854370 
	C298.224152,393.039276 291.579163,395.515198 288.451996,401.275208 
	C286.620270,397.864441 288.369446,396.409668 289.369507,394.427673 
z"/>
<path fill="#000000" opacity="1.000000" stroke="none" 
	d="
M358.483459,318.823669 
	C363.661926,314.558289 363.903839,307.822784 367.487701,302.979248 
	C368.063202,302.201508 368.380035,301.222961 370.240326,300.696259 
	C367.815582,308.123077 366.139252,315.235199 359.877350,319.995544 
	C358.887329,320.748199 357.323059,321.909332 358.483459,318.823669 
z"/>
<path fill="#000000" opacity="1.000000" stroke="none" 
	d="
M189.056168,385.772614 
	C191.526443,385.393768 192.012787,379.840240 194.893250,383.135406 
	C197.881775,386.554199 193.061127,386.630951 191.627625,387.991608 
	C189.439224,390.068848 187.741714,392.999847 183.750168,393.323486 
	C184.224213,389.823639 186.384964,387.796936 189.056168,385.772614 
z"/>
<path fill="#000000" opacity="1.000000" stroke="none" 
	d="
M303.723175,236.758240 
	C305.380829,235.547287 306.500000,233.783401 308.933105,234.854126 
	C307.236877,240.449173 302.546448,242.599442 297.249420,245.984909 
	C298.878296,241.614548 301.521698,239.547653 303.723175,236.758240 
z"/>
<path fill="#000000" opacity="1.000000" stroke="none" 
	d="
M294.896271,252.711914 
	C294.080902,257.757782 290.739807,261.035522 287.764984,264.618805 
	C288.622437,259.869843 290.389740,255.449463 293.205414,251.492676 
	C293.749695,250.727798 294.661621,251.416077 294.896271,252.711914 
z"/>
<path fill="#000000" opacity="1.000000" stroke="none" 
	d="
M304.868347,378.305389 
	C306.205688,378.392609 307.579620,378.985199 306.746338,379.927979 
	C305.146210,381.738342 303.430664,383.921417 300.105133,383.388702 
	C300.086853,380.145508 302.450104,379.359131 304.868347,378.305389 
z"/>
<path fill="#000000" opacity="1.000000" stroke="none" 
	d="
M436.704590,211.207657 
	C434.081207,207.162781 437.688416,206.561676 440.445312,204.409073 
	C439.985474,207.676804 438.562927,209.428528 436.704590,211.207657 
z"/>
</svg>